<?xml version="1.0" encoding="utf-8"?>
<!-- Generator: Adobe Illustrator 28.0.0, SVG Export Plug-In . SVG Version: 6.00 Build 0)  -->
<svg version="1.1" id="Layer_1" xmlns="http://www.w3.org/2000/svg" xmlns:xlink="http://www.w3.org/1999/xlink" x="0px" y="0px"
	 viewBox="0 0 612 612" style="enable-background:new 0 0 612 612;" xml:space="preserve">
<style type="text/css">
	.st0{fill:#DAE1E7;}
</style>
<g>
	<path class="st0" d="M358.47,332.28c0.9,6.7,2.16,13.37,2.59,20.1c0.34,5.21,2.15,5.59,6.78,4.36c8.29-2.2,12.59-6.66,13-15.53
		c0.85-18.37,2.17-36.71,3.5-55.06c0.41-5.57-0.55-8.79-7.26-9c-7.36-0.23-14.71-1.63-22.01-2.86c-5.4-0.91-7.31,2.36-9.16,6.38
		c-11.17,24.29-22.37,48.56-33.69,72.78c-1.42,3.04-1.95,7.95-6.12,7.73c-3.81-0.2-4.94-4.86-6.38-7.96
		c-10.78-23.15-21.59-46.29-31.81-69.68c-3.23-7.4-6.64-10.9-15.31-8.34c-6.42,1.9-13.45,1.95-20.23,2.34
		c-3.91,0.23-5.16,1.77-4.92,5.49c1.29,20.15,2.36,40.31,3.8,60.45c0.3,4.21,2.63,7.87,6.16,10.48c8.39,6.2,13.39,4.25,14.53-5.93
		c0.65-5.77,0.24-11.69,3.1-17.36c9.78,42.68-21.94,77.98-61.85,79.79c-18.2,0.82-35.42-0.43-52.53-5.7
		c-29.59-9.13-49.3-32.08-50.37-62.14c-1.01-28.45,13.87-48.84,38.14-62.79c5.32-3.06,13.95-3.87,15.34-9.26
		c1.35-5.25-7.09-8.56-10.23-13.53c-7.14-11.3-14.91-22.46-16.7-36.07c-3.43-26.13,12.64-48.84,39.87-53.44
		c19.65-3.32,39.51-7.15,59.71-5.92c8.69,0.53,16.18-3.39,24.04-5.91c12.58-4.04,16.56-3.75,26.5,2.96
		c-4.01,1.33-7.47,2.51-10.95,3.64c-7.22,2.33-9.27,7.34-6.29,13.91c10.93,24.08,22.18,48.01,33.18,72.06
		c2.2,4.8,4.16,4.23,7.94,1.35c6.82-5.2,8.92-10,4.28-18.46c-10.03-18.25-9.2-37.26,0.56-55.41c4.35-8.09,2.08-13.38-4.03-18.54
		c-11.51-9.71-24.26-17.02-39.04-20.49c-2.28-0.53-4.7-0.72-7.26-3.55c20.81,1.98,38.51,9.13,53.79,21.67
		c4.99,4.09,7.62,5.23,13.15,0.49c14.72-12.62,32.16-19.63,51.96-21.88c-2.24,3.83-5.92,3.56-8.87,4.41
		c-10.43,2.99-19.88,7.95-28.55,14.27c-14.22,10.36-14.67,12.93-7.84,29.18c7.51,17.85,6.13,35.27-2.87,52.28
		c-3.38,6.4,1.58,17.06,8.38,18.48c2.75,0.57,3.57-1.21,4.48-3.22c11.34-24.86,22.68-49.71,34.1-74.52
		c2.41-5.23,0.51-8.72-4.27-10.77c-4.29-1.83-8.82-3.07-13.96-4.81c7.71-6.73,16.22-7.35,24.31-3.9
		c22.74,9.69,47.17,6.49,70.69,9.97c12.52,1.85,24.86,3.63,35.33,10.87c20.21,13.96,26.14,37.61,15.63,59.96
		c-5.07,10.79-11.1,21.03-19.32,29.75c-4.28,4.54-3.96,6.44,2.09,9.32c22.76,10.83,41.06,25.72,46.73,52.33
		c6.37,29.9-9.27,61.5-39.27,73.98c-31.64,13.17-63.95,15.74-95.47-0.81C362.97,388.34,349.93,356.19,358.47,332.28z M437.39,361.75
		c-3.45,2.53-6.81,1.63-9.92,1.66c-17.82,0.14-35.63,0.02-53.45,0.2c-8.45,0.09-9.14,1.4-5.06,8.56
		c7.87,13.83,18.98,24.2,33.58,30.66c29.2,12.93,59.57-2.48,66.7-33.83c2.28-10,1.51-20.13,0.47-30.14
		c-2.88-27.68-24.53-52.06-49.39-56.43c-4.09-0.72-7.14-1.24-7.1,4.33c0.11,17.22-0.43,34.47,0.41,51.65
		c0.68,13.9,3.23,15.95,17.22,19.72C433.1,358.75,435.58,358.9,437.39,361.75z M174.5,361.53c2.84-3.42,6.26-3.3,9.41-3.93
		c8.67-1.74,13.96-6.99,14.18-15.84c0.47-18.41,0.34-36.84,0.48-55.26c0.03-3.92-1.57-5.15-5.57-4.34
		c-10.44,2.1-19.68,6.45-27.68,13.46c-22.26,19.5-26.86,45.19-22.67,72.36c3.71,24.09,30.17,49.55,64.42,35.89
		c15.04-6,26.8-16.27,35.04-30.36c5.27-9,4.84-9.88-5.29-9.94c-17.53-0.1-35.07,0-52.6-0.12
		C181.14,363.43,177.75,364.44,174.5,361.53z M414.17,231.05c-0.25,0-0.49,0-0.74,0c0,10.4,0.26,20.8-0.1,31.18
		c-0.21,6.03,1.56,8.71,8.03,8.27c7.1-0.49,14.26-0.28,21.38-0.07c9.62,0.28,16.4-4.37,21.49-11.96
		c13.07-19.49,11.39-53.06-3.5-71.21c-4.84-5.89-10.93-10.19-18.15-12.4c-16.19-4.95-29.24,3.61-28.53,18.82
		C414.63,206.11,414.17,218.59,414.17,231.05z M198.47,226.73c-0.4-9.61,1.06-23.58-1.1-37.46c-1.41-9.08-7.55-14.9-16.65-15.54
		c-7.36-0.52-14.05,1.42-20.14,5.68c-17.32,12.12-26.62,42.66-19.08,65.14c7.48,22.3,17.79,27.36,34.88,25.9
		c4.71-0.4,9.53-0.41,14.23,0.04c6.51,0.62,8.18-2.28,7.97-8.28C198.2,251.83,198.47,241.43,198.47,226.73z M229.84,207.56
		c-0.26,0.91-0.56,1.48-0.56,2.04c-0.04,12.17-0.13,24.34-0.04,36.51c0.05,7.08-2.27,16.33,1.28,20.69
		c4.59,5.63,13.78-0.45,21.03,0.02c6.09,0.39,7.16-2,4.62-7.39c-7.57-16.1-14.82-32.34-22.28-48.49
		C233.24,209.52,233.04,207.26,229.84,207.56z M382.58,208.68c-0.88-0.27-1.75-0.53-2.63-0.8c-6.86,14.91-13.64,29.85-20.6,44.71
		c-6.26,13.37-6.34,13.29,8.65,14.52c3.23,0.26,6.43,0.92,9.64,1.38c3.24,0.46,4.99-0.61,4.97-4.23
		C382.54,245.73,382.58,227.21,382.58,208.68z M306.75,294.88c0.52-0.62,1.48-1.35,1.92-2.32c4.06-8.89,8.08-17.8,11.99-26.76
		c0.56-1.27,1.15-3.54,0.53-4.16c-4.55-4.58-9.49-11.21-15.27-11.09c-5.78,0.12-10.93,6.39-15.07,11.46
		c-0.62,0.76-0.07,2.87,0.49,4.12c3.76,8.39,7.63,16.73,11.56,25.04C303.6,292.67,303.87,294.76,306.75,294.88z M313.21,204.09
		c0.23-6.57-0.44-13.02-3.07-19.08c-0.86-1.99-1.21-5.08-4.26-4.9c-2.35,0.13-3.06,2.65-3.76,4.48
		c-4.95,12.98-4.81,25.96,0.32,38.88c0.66,1.66,1.39,3.53,3.39,3.68c2.68,0.2,3.09-2.31,3.91-4.09
		C312.54,217.04,313.42,210.65,313.21,204.09z"/>
</g>
</svg>
